<svg width="207" height="84" viewBox="0 0 207 84" fill="none" xmlns="http://www.w3.org/2000/svg">
<path d="M1.43466 67V52.4545H4.00568V57.8949H4.11222C4.24479 57.6297 4.43182 57.348 4.6733 57.0497C4.91477 56.7467 5.24148 56.4886 5.65341 56.2756C6.06534 56.0578 6.59091 55.9489 7.23011 55.9489C8.07292 55.9489 8.83286 56.1643 9.50994 56.5952C10.1918 57.0213 10.7315 57.6534 11.1293 58.4915C11.5317 59.3248 11.733 60.3475 11.733 61.5597C11.733 62.7576 11.5365 63.7756 11.1435 64.6136C10.7505 65.4517 10.2154 66.0909 9.53835 66.5312C8.86127 66.9716 8.09422 67.1918 7.23722 67.1918C6.61222 67.1918 6.09375 67.0876 5.68182 66.8793C5.26989 66.6709 4.93845 66.42 4.6875 66.1264C4.44129 65.8281 4.24953 65.5464 4.11222 65.2812H3.96307V67H1.43466ZM3.95597 61.5455C3.95597 62.2509 4.0554 62.8688 4.25426 63.3991C4.45786 63.9295 4.74905 64.3437 5.12784 64.642C5.51136 64.9356 5.97538 65.0824 6.51989 65.0824C7.08807 65.0824 7.56392 64.9309 7.94744 64.6278C8.33097 64.3201 8.61979 63.901 8.81392 63.3707C9.01278 62.8357 9.11222 62.2273 9.11222 61.5455C9.11222 60.8684 9.01515 60.267 8.82102 59.7415C8.62689 59.2159 8.33807 58.804 7.95455 58.5057C7.57102 58.2074 7.0928 58.0582 6.51989 58.0582C5.97064 58.0582 5.50426 58.2027 5.12074 58.4915C4.73722 58.7803 4.44602 59.1851 4.24716 59.706C4.05303 60.2268 3.95597 60.84 3.95597 61.5455ZM15.1456 71.0909C14.7952 71.0909 14.4709 71.0625 14.1726 71.0057C13.879 70.9536 13.6446 70.892 13.4695 70.821L14.0661 68.8182C14.4401 68.9271 14.7739 68.9792 15.0675 68.9744C15.361 68.9697 15.6191 68.8774 15.8416 68.6974C16.0689 68.5223 16.2607 68.2287 16.4169 67.8168L16.6371 67.2273L12.6811 56.0909H15.4084L17.9226 64.3295H18.0362L20.5575 56.0909H23.2919L18.924 68.321C18.7204 68.8987 18.4505 69.3935 18.1143 69.8054C17.7782 70.2221 17.3662 70.5393 16.8786 70.7571C16.3956 70.9796 15.8179 71.0909 15.1456 71.0909ZM39.8899 57.0994C39.7715 56.7159 39.6082 56.3726 39.3999 56.0696C39.1963 55.7618 38.95 55.4991 38.6612 55.2812C38.3771 55.0634 38.0504 54.9001 37.6811 54.7912C37.3118 54.6776 36.9093 54.6207 36.4737 54.6207C35.6925 54.6207 34.9964 54.8172 34.3857 55.2102C33.7749 55.6032 33.2943 56.1809 32.9439 56.9432C32.5982 57.7008 32.4254 58.6241 32.4254 59.7131C32.4254 60.8116 32.5982 61.742 32.9439 62.5043C33.2895 63.2666 33.7701 63.8466 34.3857 64.2443C35.0012 64.6373 35.7161 64.8338 36.5305 64.8338C37.2692 64.8338 37.9084 64.6918 38.4482 64.4077C38.9927 64.1236 39.4117 63.7211 39.7053 63.2003C39.9988 62.6747 40.1456 62.0592 40.1456 61.3537L40.7422 61.446H36.7933V59.3864H42.6953V61.1335C42.6953 62.3788 42.4302 63.456 41.8999 64.3651C41.3696 65.2741 40.6404 65.9749 39.7124 66.4673C38.7843 66.955 37.719 67.1989 36.5163 67.1989C35.1764 67.1989 33.9998 66.8982 32.9865 66.2969C31.978 65.6908 31.1896 64.8314 30.6214 63.7188C30.058 62.6013 29.7763 61.2756 29.7763 59.7415C29.7763 58.5672 29.942 57.5185 30.2734 56.5952C30.6096 55.6719 31.0784 54.8883 31.6797 54.2443C32.281 53.5956 32.9865 53.1032 33.7962 52.767C34.6058 52.4261 35.4865 52.2557 36.4382 52.2557C37.2431 52.2557 37.9936 52.3741 38.6896 52.6108C39.3857 52.8428 40.0036 53.1742 40.5433 53.6051C41.0878 54.036 41.5353 54.5473 41.8857 55.1392C42.236 55.7311 42.4657 56.3845 42.5746 57.0994H39.8899ZM45.8132 67V56.0909H48.3842V67H45.8132ZM47.1058 54.5426C46.6986 54.5426 46.3482 54.4077 46.0547 54.1378C45.7611 53.8632 45.6143 53.5341 45.6143 53.1506C45.6143 52.7623 45.7611 52.4332 46.0547 52.1634C46.3482 51.8887 46.6986 51.7514 47.1058 51.7514C47.5178 51.7514 47.8681 51.8887 48.157 52.1634C48.4505 52.4332 48.5973 52.7623 48.5973 53.1506C48.5973 53.5341 48.4505 53.8632 48.157 54.1378C47.8681 54.4077 47.5178 54.5426 47.1058 54.5426ZM55.7724 71.3182C54.8491 71.3182 54.056 71.1927 53.3931 70.9418C52.7302 70.6955 52.1976 70.3641 51.7951 69.9474C51.3926 69.5308 51.1133 69.0691 50.957 68.5625L53.2724 68.0014C53.3765 68.2145 53.5281 68.4252 53.7269 68.6335C53.9258 68.8466 54.1933 69.0218 54.5295 69.1591C54.8704 69.3011 55.2989 69.3722 55.815 69.3722C56.5442 69.3722 57.1478 69.1946 57.6261 68.8395C58.1043 68.4891 58.3434 67.9115 58.3434 67.1065V65.0398H58.2156C58.083 65.3049 57.8888 65.5772 57.6332 65.8565C57.3822 66.1359 57.0484 66.3703 56.6317 66.5597C56.2198 66.7491 55.7013 66.8438 55.0763 66.8438C54.2383 66.8438 53.4783 66.6473 52.7965 66.2543C52.1194 65.8565 51.5797 65.2647 51.1772 64.4787C50.7795 63.688 50.5806 62.6984 50.5806 61.5099C50.5806 60.312 50.7795 59.3011 51.1772 58.4773C51.5797 57.6487 52.1218 57.0213 52.8036 56.5952C53.4854 56.1643 54.2454 55.9489 55.0835 55.9489C55.7227 55.9489 56.2482 56.0578 56.6602 56.2756C57.0768 56.4886 57.4083 56.7467 57.6545 57.0497C57.9007 57.348 58.0877 57.6297 58.2156 57.8949H58.3576V56.0909H60.8931V67.1776C60.8931 68.1103 60.6706 68.8821 60.2255 69.4929C59.7804 70.1037 59.172 70.5606 58.4002 70.8636C57.6284 71.1667 56.7525 71.3182 55.7724 71.3182ZM55.7937 64.8267C56.3382 64.8267 56.8022 64.6941 57.1857 64.429C57.5692 64.1638 57.8604 63.7827 58.0593 63.2855C58.2582 62.7884 58.3576 62.1918 58.3576 61.4957C58.3576 60.8092 58.2582 60.2079 58.0593 59.6918C57.8652 59.1757 57.5763 58.7756 57.1928 58.4915C56.814 58.2027 56.3477 58.0582 55.7937 58.0582C55.2208 58.0582 54.7425 58.2074 54.359 58.5057C53.9755 58.804 53.6867 59.2135 53.4925 59.7344C53.2984 60.2505 53.2013 60.8376 53.2013 61.4957C53.2013 62.1634 53.2984 62.7481 53.4925 63.25C53.6914 63.7472 53.9826 64.1354 54.3661 64.4148C54.7544 64.6894 55.2302 64.8267 55.7937 64.8267ZM63.6417 67V52.4545H69.0962C70.2137 52.4545 71.1512 52.6629 71.9087 53.0795C72.671 53.4962 73.2463 54.0691 73.6346 54.7983C74.0276 55.5227 74.2241 56.3466 74.2241 57.2699C74.2241 58.2027 74.0276 59.0312 73.6346 59.7557C73.2416 60.4801 72.6616 61.0507 71.8945 61.4673C71.1275 61.8793 70.1829 62.0852 69.0607 62.0852H65.4457V59.919H68.7056C69.359 59.919 69.8941 59.8054 70.3107 59.5781C70.7274 59.3509 71.0352 59.0384 71.234 58.6406C71.4376 58.2429 71.5394 57.786 71.5394 57.2699C71.5394 56.7538 71.4376 56.2992 71.234 55.9062C71.0352 55.5133 70.725 55.2079 70.3036 54.9901C69.887 54.7675 69.3496 54.6562 68.6914 54.6562H66.2766V67H63.6417ZM78.9702 52.4545V67H76.3991V52.4545H78.9702ZM84.7532 67.2202C84.0619 67.2202 83.4393 67.0971 82.8853 66.8509C82.3361 66.5999 81.9004 66.2306 81.5785 65.7429C81.2612 65.2552 81.1026 64.6539 81.1026 63.9389C81.1026 63.3234 81.2163 62.8144 81.4435 62.4119C81.6708 62.0095 81.9809 61.6875 82.3739 61.446C82.7669 61.2045 83.2096 61.0223 83.7021 60.8991C84.1992 60.7713 84.7129 60.679 85.2433 60.6222C85.8825 60.5559 86.4009 60.4967 86.7987 60.4446C87.1964 60.3878 87.4852 60.3026 87.6651 60.1889C87.8498 60.0705 87.9421 59.8883 87.9421 59.642V59.5994C87.9421 59.0644 87.7835 58.6501 87.4663 58.3565C87.149 58.063 86.6921 57.9162 86.0955 57.9162C85.4658 57.9162 84.9663 58.0535 84.5969 58.3281C84.2324 58.6027 83.9862 58.9271 83.8583 59.3011L81.4577 58.9602C81.6471 58.2973 81.9596 57.7434 82.3952 57.2983C82.8308 56.8485 83.3635 56.5123 83.9933 56.2898C84.623 56.0625 85.319 55.9489 86.0813 55.9489C86.6069 55.9489 87.1301 56.0104 87.6509 56.1335C88.1718 56.2566 88.6476 56.4602 89.0785 56.7443C89.5094 57.0237 89.855 57.4048 90.1154 57.8878C90.3806 58.3707 90.5131 58.9744 90.5131 59.6989V67H88.0415V65.5014H87.9563C87.8001 65.8045 87.5799 66.0885 87.2958 66.3537C87.0165 66.6141 86.6637 66.8248 86.2376 66.9858C85.8162 67.142 85.3214 67.2202 84.7532 67.2202ZM85.4208 65.331C85.9369 65.331 86.3844 65.2292 86.7631 65.0256C87.1419 64.8172 87.4331 64.5426 87.6367 64.2017C87.8451 63.8608 87.9492 63.4891 87.9492 63.0866V61.8011C87.8687 61.8674 87.7314 61.929 87.5373 61.9858C87.3479 62.0426 87.1348 62.0923 86.8981 62.1349C86.6613 62.1776 86.427 62.2154 86.195 62.2486C85.9629 62.2817 85.7617 62.3101 85.5913 62.3338C85.2077 62.3859 84.8645 62.4711 84.5614 62.5895C84.2584 62.7079 84.0193 62.8736 83.8441 63.0866C83.6689 63.295 83.5813 63.5649 83.5813 63.8963C83.5813 64.3698 83.7541 64.7273 84.0998 64.9688C84.4454 65.2102 84.8858 65.331 85.4208 65.331ZM97.8569 67.2131C96.7679 67.2131 95.8327 66.974 95.0515 66.4957C94.275 66.0175 93.676 65.357 93.2546 64.5142C92.8379 63.6667 92.6296 62.6913 92.6296 61.5881C92.6296 60.4801 92.8427 59.5024 93.2688 58.6548C93.695 57.8026 94.2963 57.1397 95.0728 56.6662C95.854 56.188 96.7773 55.9489 97.8427 55.9489C98.7281 55.9489 99.5117 56.1122 100.194 56.4389C100.88 56.7609 101.427 57.2178 101.834 57.8097C102.241 58.3968 102.473 59.0833 102.53 59.8693H100.073C99.9734 59.3437 99.7366 58.9058 99.3626 58.5554C98.9933 58.2003 98.4985 58.0227 97.8782 58.0227C97.3526 58.0227 96.891 58.1648 96.4933 58.4489C96.0955 58.7282 95.7854 59.1307 95.5629 59.6562C95.3451 60.1818 95.2362 60.8116 95.2362 61.5455C95.2362 62.2888 95.3451 62.928 95.5629 63.4631C95.7807 63.9934 96.0861 64.4029 96.479 64.6918C96.8768 64.9759 97.3432 65.1179 97.8782 65.1179C98.257 65.1179 98.5955 65.0469 98.8938 64.9048C99.1969 64.758 99.4502 64.5473 99.6538 64.2727C99.8574 63.9981 99.997 63.6643 100.073 63.2713H102.53C102.469 64.0431 102.241 64.7273 101.848 65.3239C101.455 65.9157 100.92 66.3797 100.243 66.7159C99.5662 67.0473 98.7707 67.2131 97.8569 67.2131ZM109.471 67.2131C108.377 67.2131 107.433 66.9858 106.637 66.5312C105.846 66.072 105.238 65.4233 104.812 64.5852C104.386 63.7424 104.173 62.7505 104.173 61.6094C104.173 60.4872 104.386 59.5024 104.812 58.6548C105.243 57.8026 105.844 57.1397 106.616 56.6662C107.388 56.188 108.294 55.9489 109.336 55.9489C110.008 55.9489 110.643 56.0578 111.239 56.2756C111.841 56.4886 112.371 56.8201 112.83 57.2699C113.294 57.7197 113.659 58.2926 113.924 58.9886C114.189 59.6799 114.322 60.5038 114.322 61.4602V62.2486H105.38V60.5156H111.857C111.853 60.0232 111.746 59.5852 111.538 59.2017C111.329 58.8134 111.038 58.508 110.664 58.2855C110.295 58.063 109.864 57.9517 109.371 57.9517C108.846 57.9517 108.384 58.0795 107.987 58.3352C107.589 58.5862 107.279 58.9176 107.056 59.3295C106.838 59.7367 106.727 60.1842 106.722 60.6719V62.1847C106.722 62.8191 106.838 63.3636 107.07 63.8182C107.302 64.268 107.627 64.6136 108.043 64.8551C108.46 65.0919 108.948 65.2102 109.506 65.2102C109.88 65.2102 110.219 65.1581 110.522 65.054C110.825 64.9451 111.088 64.7865 111.31 64.5781C111.533 64.3698 111.701 64.1117 111.815 63.804L114.215 64.0739C114.064 64.7083 113.775 65.2623 113.349 65.7358C112.927 66.2045 112.388 66.5691 111.729 66.8295C111.071 67.0852 110.318 67.2131 109.471 67.2131ZM120.545 67.1918C119.688 67.1918 118.921 66.9716 118.244 66.5312C117.567 66.0909 117.032 65.4517 116.639 64.6136C116.246 63.7756 116.049 62.7576 116.049 61.5597C116.049 60.3475 116.248 59.3248 116.646 58.4915C117.048 57.6534 117.591 57.0213 118.272 56.5952C118.954 56.1643 119.714 55.9489 120.552 55.9489C121.191 55.9489 121.717 56.0578 122.129 56.2756C122.541 56.4886 122.868 56.7467 123.109 57.0497C123.35 57.348 123.538 57.6297 123.67 57.8949H123.777V52.4545H126.355V67H123.826V65.2812H123.67C123.538 65.5464 123.346 65.8281 123.095 66.1264C122.844 66.42 122.512 66.6709 122.1 66.8793C121.689 67.0876 121.17 67.1918 120.545 67.1918ZM121.262 65.0824C121.807 65.0824 122.271 64.9356 122.654 64.642C123.038 64.3437 123.329 63.9295 123.528 63.3991C123.727 62.8688 123.826 62.2509 123.826 61.5455C123.826 60.84 123.727 60.2268 123.528 59.706C123.334 59.1851 123.045 58.7803 122.662 58.4915C122.283 58.2027 121.816 58.0582 121.262 58.0582C120.69 58.0582 120.211 58.2074 119.828 58.5057C119.444 58.804 119.155 59.2159 118.961 59.7415C118.767 60.267 118.67 60.8684 118.67 61.5455C118.67 62.2273 118.767 62.8357 118.961 63.3707C119.16 63.901 119.451 64.3201 119.835 64.6278C120.223 64.9309 120.699 65.0824 121.262 65.0824Z" fill="black"/>
<path d="M2.86932 39V9.90909H21.7898V14.3267H8.1392V22.2244H20.8097V26.642H8.1392V34.5824H21.9034V39H2.86932ZM32.081 9.90909V39H26.9389V9.90909H32.081ZM47.0277 39.4261C44.8402 39.4261 42.951 38.9716 41.3601 38.0625C39.7786 37.1439 38.5618 35.8466 37.7095 34.1705C36.8572 32.4848 36.4311 30.5009 36.4311 28.2188C36.4311 25.9744 36.8572 24.0047 37.7095 22.3097C38.5713 20.6051 39.7739 19.2794 41.3175 18.3324C42.861 17.3759 44.6745 16.8977 46.7578 16.8977C48.1025 16.8977 49.3714 17.1155 50.5646 17.5511C51.7673 17.9773 52.8279 18.6402 53.7464 19.5398C54.6745 20.4394 55.4036 21.5852 55.9339 22.9773C56.4643 24.3598 56.7294 26.0076 56.7294 27.9205V29.4972H38.8459V26.0312H51.8004C51.791 25.0464 51.5779 24.1705 51.1612 23.4034C50.7446 22.6269 50.1622 22.0161 49.4141 21.571C48.6754 21.1259 47.8137 20.9034 46.8288 20.9034C45.7777 20.9034 44.8544 21.1591 44.0589 21.6705C43.2635 22.1723 42.6432 22.8352 42.1982 23.6591C41.7625 24.4735 41.54 25.3684 41.5305 26.3438V29.3693C41.5305 30.6383 41.7625 31.7273 42.2266 32.6364C42.6906 33.536 43.3393 34.2273 44.1726 34.7102C45.0059 35.1837 45.9813 35.4205 47.0987 35.4205C47.8468 35.4205 48.5239 35.3163 49.13 35.108C49.736 34.8902 50.2616 34.5729 50.7067 34.1562C51.1518 33.7396 51.4879 33.2235 51.7152 32.608L56.5163 33.1477C56.2133 34.4167 55.6357 35.5246 54.7834 36.4716C53.9406 37.4091 52.861 38.1383 51.5447 38.6591C50.2285 39.1705 48.7228 39.4261 47.0277 39.4261ZM61.0795 39V17.1818H65.9943V20.8892H66.25C66.7045 19.6392 67.4574 18.6638 68.5085 17.9631C69.5597 17.2528 70.8144 16.8977 72.2727 16.8977C73.75 16.8977 74.9953 17.2576 76.0085 17.9773C77.0313 18.6875 77.7509 19.6581 78.1676 20.8892H78.3949C78.8778 19.6771 79.6922 18.7112 80.8381 17.9915C81.9934 17.2623 83.3617 16.8977 84.9432 16.8977C86.9508 16.8977 88.589 17.5322 89.858 18.8011C91.1269 20.0701 91.7614 21.9214 91.7614 24.3551V39H86.6051V25.1506C86.6051 23.7964 86.2453 22.8068 85.5256 22.1818C84.8059 21.5473 83.9252 21.2301 82.8835 21.2301C81.643 21.2301 80.6723 21.6184 79.9716 22.3949C79.2803 23.1619 78.9347 24.161 78.9347 25.392V39H73.892V24.9375C73.892 23.8106 73.5511 22.911 72.8693 22.2386C72.197 21.5663 71.3163 21.2301 70.2273 21.2301C69.4886 21.2301 68.8163 21.4195 68.2102 21.7983C67.6042 22.1676 67.1212 22.6932 66.7614 23.375C66.4015 24.0473 66.2216 24.8333 66.2216 25.733V39H61.0795ZM106.637 39.4261C104.45 39.4261 102.56 38.9716 100.969 38.0625C99.388 37.1439 98.1712 35.8466 97.3189 34.1705C96.4666 32.4848 96.0405 30.5009 96.0405 28.2188C96.0405 25.9744 96.4666 24.0047 97.3189 22.3097C98.1806 20.6051 99.3833 19.2794 100.927 18.3324C102.47 17.3759 104.284 16.8977 106.367 16.8977C107.712 16.8977 108.981 17.1155 110.174 17.5511C111.377 17.9773 112.437 18.6402 113.356 19.5398C114.284 20.4394 115.013 21.5852 115.543 22.9773C116.074 24.3598 116.339 26.0076 116.339 27.9205V29.4972H98.4553V26.0312H111.41C111.4 25.0464 111.187 24.1705 110.771 23.4034C110.354 22.6269 109.772 22.0161 109.023 21.571C108.285 21.1259 107.423 20.9034 106.438 20.9034C105.387 20.9034 104.464 21.1591 103.668 21.6705C102.873 22.1723 102.253 22.8352 101.808 23.6591C101.372 24.4735 101.149 25.3684 101.14 26.3438V29.3693C101.14 30.6383 101.372 31.7273 101.836 32.6364C102.3 33.536 102.949 34.2273 103.782 34.7102C104.615 35.1837 105.591 35.4205 106.708 35.4205C107.456 35.4205 108.133 35.3163 108.739 35.108C109.345 34.8902 109.871 34.5729 110.316 34.1562C110.761 33.7396 111.097 33.2235 111.325 32.608L116.126 33.1477C115.823 34.4167 115.245 35.5246 114.393 36.4716C113.55 37.4091 112.47 38.1383 111.154 38.6591C109.838 39.1705 108.332 39.4261 106.637 39.4261ZM125.831 26.2159V39H120.689V17.1818H125.604V20.8892H125.859C126.361 19.6676 127.161 18.697 128.26 17.9773C129.368 17.2576 130.736 16.8977 132.365 16.8977C133.871 16.8977 135.182 17.2197 136.3 17.8636C137.427 18.5076 138.298 19.4403 138.913 20.6619C139.538 21.8835 139.846 23.3655 139.837 25.108V39H134.695V25.9034C134.695 24.4451 134.316 23.304 133.558 22.4801C132.81 21.6562 131.773 21.2443 130.447 21.2443C129.548 21.2443 128.748 21.4432 128.047 21.8409C127.356 22.2292 126.811 22.7926 126.413 23.5312C126.025 24.2699 125.831 25.1648 125.831 26.2159ZM155.959 17.1818V21.1591H143.416V17.1818H155.959ZM146.513 11.9545H151.655V32.4375C151.655 33.1288 151.759 33.6591 151.967 34.0284C152.185 34.3883 152.469 34.6345 152.82 34.767C153.17 34.8996 153.558 34.9659 153.984 34.9659C154.306 34.9659 154.6 34.9422 154.865 34.8949C155.14 34.8475 155.348 34.8049 155.49 34.767L156.357 38.7869C156.082 38.8816 155.689 38.9858 155.178 39.0994C154.676 39.2131 154.06 39.2794 153.331 39.2983C152.043 39.3362 150.883 39.142 149.851 38.7159C148.819 38.2803 148 37.608 147.393 36.6989C146.797 35.7898 146.503 34.6534 146.513 33.2898V11.9545ZM177.191 22.9489L172.504 23.4602C172.371 22.9867 172.139 22.5417 171.808 22.125C171.486 21.7083 171.05 21.3722 170.501 21.1165C169.951 20.8608 169.279 20.733 168.484 20.733C167.414 20.733 166.514 20.965 165.785 21.429C165.065 21.893 164.71 22.4943 164.719 23.233C164.71 23.8674 164.942 24.3835 165.415 24.7812C165.898 25.179 166.694 25.5057 167.802 25.7614L171.523 26.5568C173.588 27.0019 175.122 27.7074 176.126 28.6733C177.139 29.6392 177.65 30.9034 177.66 32.4659C177.65 33.839 177.248 35.0511 176.452 36.1023C175.666 37.1439 174.573 37.9583 173.171 38.5455C171.77 39.1326 170.16 39.4261 168.342 39.4261C165.671 39.4261 163.522 38.8674 161.893 37.75C160.264 36.6231 159.293 35.0559 158.981 33.0483L163.995 32.5653C164.222 33.5502 164.705 34.2936 165.444 34.7955C166.183 35.2973 167.144 35.5483 168.327 35.5483C169.549 35.5483 170.529 35.2973 171.268 34.7955C172.016 34.2936 172.39 33.6733 172.39 32.9347C172.39 32.3097 172.148 31.7936 171.665 31.3864C171.192 30.9792 170.453 30.6667 169.45 30.4489L165.728 29.6676C163.635 29.232 162.087 28.4981 161.083 27.4659C160.079 26.4242 159.582 25.108 159.592 23.517C159.582 22.1723 159.947 21.0076 160.685 20.0227C161.433 19.0284 162.47 18.2614 163.796 17.7216C165.131 17.1723 166.67 16.8977 168.413 16.8977C170.969 16.8977 172.982 17.4422 174.45 18.5312C175.927 19.6203 176.841 21.0928 177.191 22.9489Z" fill="black"/>
<rect x="100" y="77" width="107" height="7" fill="#76F08A"/>
</svg>
