<svg width="427" height="57" viewBox="0 0 427 57" fill="none" xmlns="http://www.w3.org/2000/svg">
<rect width="427" height="57" fill="white"/>
<path d="M38.8693 39V9.90909H57.7898V14.3267H44.1392V22.2244H56.8097V26.642H44.1392V34.5824H57.9034V39H38.8693ZM68.081 9.90909V39H62.9389V9.90909H68.081ZM83.0277 39.4261C80.8402 39.4261 78.951 38.9716 77.3601 38.0625C75.7786 37.1439 74.5618 35.8466 73.7095 34.1705C72.8572 32.4848 72.4311 30.5009 72.4311 28.2188C72.4311 25.9744 72.8572 24.0047 73.7095 22.3097C74.5713 20.6051 75.7739 19.2794 77.3175 18.3324C78.861 17.3759 80.6745 16.8977 82.7578 16.8977C84.1025 16.8977 85.3714 17.1155 86.5646 17.5511C87.7673 17.9773 88.8279 18.6402 89.7464 19.5398C90.6745 20.4394 91.4036 21.5852 91.9339 22.9773C92.4643 24.3598 92.7294 26.0076 92.7294 27.9205V29.4972H74.8459V26.0312H87.8004C87.791 25.0464 87.5779 24.1705 87.1612 23.4034C86.7446 22.6269 86.1622 22.0161 85.4141 21.571C84.6754 21.1259 83.8137 20.9034 82.8288 20.9034C81.7777 20.9034 80.8544 21.1591 80.0589 21.6705C79.2635 22.1723 78.6432 22.8352 78.1982 23.6591C77.7625 24.4735 77.54 25.3684 77.5305 26.3438V29.3693C77.5305 30.6383 77.7625 31.7273 78.2266 32.6364C78.6906 33.536 79.3393 34.2273 80.1726 34.7102C81.0059 35.1837 81.9813 35.4205 83.0987 35.4205C83.8468 35.4205 84.5239 35.3163 85.13 35.108C85.736 34.8902 86.2616 34.5729 86.7067 34.1562C87.1518 33.7396 87.4879 33.2235 87.7152 32.608L92.5163 33.1477C92.2133 34.4167 91.6357 35.5246 90.7834 36.4716C89.9406 37.4091 88.861 38.1383 87.5447 38.6591C86.2285 39.1705 84.7228 39.4261 83.0277 39.4261ZM97.0795 39V17.1818H101.994V20.8892H102.25C102.705 19.6392 103.457 18.6638 104.509 17.9631C105.56 17.2528 106.814 16.8977 108.273 16.8977C109.75 16.8977 110.995 17.2576 112.009 17.9773C113.031 18.6875 113.751 19.6581 114.168 20.8892H114.395C114.878 19.6771 115.692 18.7112 116.838 17.9915C117.993 17.2623 119.362 16.8977 120.943 16.8977C122.951 16.8977 124.589 17.5322 125.858 18.8011C127.127 20.0701 127.761 21.9214 127.761 24.3551V39H122.605V25.1506C122.605 23.7964 122.245 22.8068 121.526 22.1818C120.806 21.5473 119.925 21.2301 118.884 21.2301C117.643 21.2301 116.672 21.6184 115.972 22.3949C115.28 23.1619 114.935 24.161 114.935 25.392V39H109.892V24.9375C109.892 23.8106 109.551 22.911 108.869 22.2386C108.197 21.5663 107.316 21.2301 106.227 21.2301C105.489 21.2301 104.816 21.4195 104.21 21.7983C103.604 22.1676 103.121 22.6932 102.761 23.375C102.402 24.0473 102.222 24.8333 102.222 25.733V39H97.0795ZM142.637 39.4261C140.45 39.4261 138.56 38.9716 136.969 38.0625C135.388 37.1439 134.171 35.8466 133.319 34.1705C132.467 32.4848 132.04 30.5009 132.04 28.2188C132.04 25.9744 132.467 24.0047 133.319 22.3097C134.181 20.6051 135.383 19.2794 136.927 18.3324C138.47 17.3759 140.284 16.8977 142.367 16.8977C143.712 16.8977 144.981 17.1155 146.174 17.5511C147.377 17.9773 148.437 18.6402 149.356 19.5398C150.284 20.4394 151.013 21.5852 151.543 22.9773C152.074 24.3598 152.339 26.0076 152.339 27.9205V29.4972H134.455V26.0312H147.41C147.4 25.0464 147.187 24.1705 146.771 23.4034C146.354 22.6269 145.772 22.0161 145.023 21.571C144.285 21.1259 143.423 20.9034 142.438 20.9034C141.387 20.9034 140.464 21.1591 139.668 21.6705C138.873 22.1723 138.253 22.8352 137.808 23.6591C137.372 24.4735 137.149 25.3684 137.14 26.3438V29.3693C137.14 30.6383 137.372 31.7273 137.836 32.6364C138.3 33.536 138.949 34.2273 139.782 34.7102C140.615 35.1837 141.591 35.4205 142.708 35.4205C143.456 35.4205 144.133 35.3163 144.739 35.108C145.345 34.8902 145.871 34.5729 146.316 34.1562C146.761 33.7396 147.097 33.2235 147.325 32.608L152.126 33.1477C151.823 34.4167 151.245 35.5246 150.393 36.4716C149.55 37.4091 148.47 38.1383 147.154 38.6591C145.838 39.1705 144.332 39.4261 142.637 39.4261ZM161.831 26.2159V39H156.689V17.1818H161.604V20.8892H161.859C162.361 19.6676 163.161 18.697 164.26 17.9773C165.368 17.2576 166.736 16.8977 168.365 16.8977C169.871 16.8977 171.182 17.2197 172.3 17.8636C173.427 18.5076 174.298 19.4403 174.913 20.6619C175.538 21.8835 175.846 23.3655 175.837 25.108V39H170.695V25.9034C170.695 24.4451 170.316 23.304 169.558 22.4801C168.81 21.6562 167.773 21.2443 166.447 21.2443C165.548 21.2443 164.748 21.4432 164.047 21.8409C163.356 22.2292 162.811 22.7926 162.413 23.5312C162.025 24.2699 161.831 25.1648 161.831 26.2159ZM191.959 17.1818V21.1591H179.416V17.1818H191.959ZM182.513 11.9545H187.655V32.4375C187.655 33.1288 187.759 33.6591 187.967 34.0284C188.185 34.3883 188.469 34.6345 188.82 34.767C189.17 34.8996 189.558 34.9659 189.984 34.9659C190.306 34.9659 190.6 34.9422 190.865 34.8949C191.14 34.8475 191.348 34.8049 191.49 34.767L192.357 38.7869C192.082 38.8816 191.689 38.9858 191.178 39.0994C190.676 39.2131 190.06 39.2794 189.331 39.2983C188.043 39.3362 186.883 39.142 185.851 38.7159C184.819 38.2803 184 37.608 183.393 36.6989C182.797 35.7898 182.503 34.6534 182.513 33.2898V11.9545ZM213.191 22.9489L208.504 23.4602C208.371 22.9867 208.139 22.5417 207.808 22.125C207.486 21.7083 207.05 21.3722 206.501 21.1165C205.951 20.8608 205.279 20.733 204.484 20.733C203.414 20.733 202.514 20.965 201.785 21.429C201.065 21.893 200.71 22.4943 200.719 23.233C200.71 23.8674 200.942 24.3835 201.415 24.7812C201.898 25.179 202.694 25.5057 203.802 25.7614L207.523 26.5568C209.588 27.0019 211.122 27.7074 212.126 28.6733C213.139 29.6392 213.65 30.9034 213.66 32.4659C213.65 33.839 213.248 35.0511 212.452 36.1023C211.666 37.1439 210.573 37.9583 209.171 38.5455C207.77 39.1326 206.16 39.4261 204.342 39.4261C201.671 39.4261 199.522 38.8674 197.893 37.75C196.264 36.6231 195.293 35.0559 194.981 33.0483L199.995 32.5653C200.222 33.5502 200.705 34.2936 201.444 34.7955C202.183 35.2973 203.144 35.5483 204.327 35.5483C205.549 35.5483 206.529 35.2973 207.268 34.7955C208.016 34.2936 208.39 33.6733 208.39 32.9347C208.39 32.3097 208.148 31.7936 207.665 31.3864C207.192 30.9792 206.453 30.6667 205.45 30.4489L201.728 29.6676C199.635 29.232 198.087 28.4981 197.083 27.4659C196.079 26.4242 195.582 25.108 195.592 23.517C195.582 22.1723 195.947 21.0076 196.685 20.0227C197.433 19.0284 198.47 18.2614 199.796 17.7216C201.131 17.1723 202.67 16.8977 204.413 16.8977C206.969 16.8977 208.982 17.4422 210.45 18.5312C211.927 19.6203 212.841 21.0928 213.191 22.9489Z" fill="black"/>
<path d="M225.017 34V19.4545H227.588V24.8949H227.694C227.827 24.6297 228.014 24.348 228.256 24.0497C228.497 23.7467 228.824 23.4886 229.236 23.2756C229.648 23.0578 230.173 22.9489 230.812 22.9489C231.655 22.9489 232.415 23.1643 233.092 23.5952C233.774 24.0213 234.314 24.6534 234.712 25.4915C235.114 26.3248 235.315 27.3475 235.315 28.5597C235.315 29.7576 235.119 30.7756 234.726 31.6136C234.333 32.4517 233.798 33.0909 233.121 33.5312C232.444 33.9716 231.676 34.1918 230.819 34.1918C230.194 34.1918 229.676 34.0876 229.264 33.8793C228.852 33.6709 228.521 33.42 228.27 33.1264C228.024 32.8281 227.832 32.5464 227.694 32.2812H227.545V34H225.017ZM227.538 28.5455C227.538 29.2509 227.638 29.8688 227.837 30.3991C228.04 30.9295 228.331 31.3437 228.71 31.642C229.094 31.9356 229.558 32.0824 230.102 32.0824C230.67 32.0824 231.146 31.9309 231.53 31.6278C231.913 31.3201 232.202 30.901 232.396 30.3707C232.595 29.8357 232.694 29.2273 232.694 28.5455C232.694 27.8684 232.597 27.267 232.403 26.7415C232.209 26.2159 231.92 25.804 231.537 25.5057C231.153 25.2074 230.675 25.0582 230.102 25.0582C229.553 25.0582 229.087 25.2027 228.703 25.4915C228.319 25.7803 228.028 26.1851 227.829 26.706C227.635 27.2268 227.538 27.84 227.538 28.5455ZM238.728 38.0909C238.377 38.0909 238.053 38.0625 237.755 38.0057C237.461 37.9536 237.227 37.892 237.052 37.821L237.648 35.8182C238.022 35.9271 238.356 35.9792 238.65 35.9744C238.943 35.9697 239.201 35.8774 239.424 35.6974C239.651 35.5223 239.843 35.2287 239.999 34.8168L240.219 34.2273L236.263 23.0909H238.991L241.505 31.3295H241.618L244.14 23.0909H246.874L242.506 35.321C242.303 35.8987 242.033 36.3935 241.697 36.8054C241.36 37.2221 240.949 37.5393 240.461 37.7571C239.978 37.9796 239.4 38.0909 238.728 38.0909ZM263.472 24.0994C263.354 23.7159 263.19 23.3726 262.982 23.0696C262.779 22.7618 262.532 22.4991 262.243 22.2812C261.959 22.0634 261.633 21.9001 261.263 21.7912C260.894 21.6776 260.492 21.6207 260.056 21.6207C259.275 21.6207 258.579 21.8172 257.968 22.2102C257.357 22.6032 256.877 23.1809 256.526 23.9432C256.181 24.7008 256.008 25.6241 256.008 26.7131C256.008 27.8116 256.181 28.742 256.526 29.5043C256.872 30.2666 257.352 30.8466 257.968 31.2443C258.583 31.6373 259.298 31.8338 260.113 31.8338C260.851 31.8338 261.491 31.6918 262.03 31.4077C262.575 31.1236 262.994 30.7211 263.288 30.2003C263.581 29.6747 263.728 29.0592 263.728 28.3537L264.324 28.446H260.376V26.3864H266.278V28.1335C266.278 29.3788 266.012 30.456 265.482 31.3651C264.952 32.2741 264.223 32.9749 263.295 33.4673C262.367 33.955 261.301 34.1989 260.099 34.1989C258.759 34.1989 257.582 33.8982 256.569 33.2969C255.56 32.6908 254.772 31.8314 254.204 30.7188C253.64 29.6013 253.359 28.2756 253.359 26.7415C253.359 25.5672 253.524 24.5185 253.856 23.5952C254.192 22.6719 254.661 21.8883 255.262 21.2443C255.863 20.5956 256.569 20.1032 257.378 19.767C258.188 19.4261 259.069 19.2557 260.02 19.2557C260.825 19.2557 261.576 19.3741 262.272 19.6108C262.968 19.8428 263.586 20.1742 264.126 20.6051C264.67 21.036 265.118 21.5473 265.468 22.1392C265.818 22.7311 266.048 23.3845 266.157 24.0994H263.472ZM269.395 34V23.0909H271.967V34H269.395ZM270.688 21.5426C270.281 21.5426 269.931 21.4077 269.637 21.1378C269.343 20.8632 269.197 20.5341 269.197 20.1506C269.197 19.7623 269.343 19.4332 269.637 19.1634C269.931 18.8887 270.281 18.7514 270.688 18.7514C271.1 18.7514 271.45 18.8887 271.739 19.1634C272.033 19.4332 272.18 19.7623 272.18 20.1506C272.18 20.5341 272.033 20.8632 271.739 21.1378C271.45 21.4077 271.1 21.5426 270.688 21.5426ZM279.355 38.3182C278.431 38.3182 277.638 38.1927 276.975 37.9418C276.313 37.6955 275.78 37.3641 275.377 36.9474C274.975 36.5308 274.696 36.0691 274.539 35.5625L276.855 35.0014C276.959 35.2145 277.11 35.4252 277.309 35.6335C277.508 35.8466 277.776 36.0218 278.112 36.1591C278.453 36.3011 278.881 36.3722 279.397 36.3722C280.126 36.3722 280.73 36.1946 281.208 35.8395C281.687 35.4891 281.926 34.9115 281.926 34.1065V32.0398H281.798C281.665 32.3049 281.471 32.5772 281.215 32.8565C280.964 33.1359 280.631 33.3703 280.214 33.5597C279.802 33.7491 279.284 33.8438 278.659 33.8438C277.821 33.8438 277.061 33.6473 276.379 33.2543C275.702 32.8565 275.162 32.2647 274.759 31.4787C274.362 30.688 274.163 29.6984 274.163 28.5099C274.163 27.312 274.362 26.3011 274.759 25.4773C275.162 24.6487 275.704 24.0213 276.386 23.5952C277.068 23.1643 277.828 22.9489 278.666 22.9489C279.305 22.9489 279.83 23.0578 280.242 23.2756C280.659 23.4886 280.991 23.7467 281.237 24.0497C281.483 24.348 281.67 24.6297 281.798 24.8949H281.94V23.0909H284.475V34.1776C284.475 35.1103 284.253 35.8821 283.808 36.4929C283.363 37.1037 282.754 37.5606 281.982 37.8636C281.211 38.1667 280.335 38.3182 279.355 38.3182ZM279.376 31.8267C279.92 31.8267 280.384 31.6941 280.768 31.429C281.152 31.1638 281.443 30.7827 281.642 30.2855C281.84 29.7884 281.94 29.1918 281.94 28.4957C281.94 27.8092 281.84 27.2079 281.642 26.6918C281.447 26.1757 281.159 25.7756 280.775 25.4915C280.396 25.2027 279.93 25.0582 279.376 25.0582C278.803 25.0582 278.325 25.2074 277.941 25.5057C277.558 25.804 277.269 26.2135 277.075 26.7344C276.881 27.2505 276.784 27.8376 276.784 28.4957C276.784 29.1634 276.881 29.7481 277.075 30.25C277.274 30.7472 277.565 31.1354 277.948 31.4148C278.337 31.6894 278.813 31.8267 279.376 31.8267ZM287.224 34V19.4545H292.679C293.796 19.4545 294.733 19.6629 295.491 20.0795C296.253 20.4962 296.829 21.0691 297.217 21.7983C297.61 22.5227 297.806 23.3466 297.806 24.2699C297.806 25.2027 297.61 26.0312 297.217 26.7557C296.824 27.4801 296.244 28.0507 295.477 28.4673C294.71 28.8793 293.765 29.0852 292.643 29.0852H289.028V26.919H292.288C292.941 26.919 293.476 26.8054 293.893 26.5781C294.31 26.3509 294.617 26.0384 294.816 25.6406C295.02 25.2429 295.122 24.786 295.122 24.2699C295.122 23.7538 295.02 23.2992 294.816 22.9062C294.617 22.5133 294.307 22.2079 293.886 21.9901C293.469 21.7675 292.932 21.6562 292.274 21.6562H289.859V34H287.224ZM302.552 19.4545V34H299.981V19.4545H302.552ZM308.335 34.2202C307.644 34.2202 307.022 34.0971 306.468 33.8509C305.918 33.5999 305.483 33.2306 305.161 32.7429C304.844 32.2552 304.685 31.6539 304.685 30.9389C304.685 30.3234 304.799 29.8144 305.026 29.4119C305.253 29.0095 305.563 28.6875 305.956 28.446C306.349 28.2045 306.792 28.0223 307.284 27.8991C307.781 27.7713 308.295 27.679 308.826 27.6222C309.465 27.5559 309.983 27.4967 310.381 27.4446C310.779 27.3878 311.067 27.3026 311.247 27.1889C311.432 27.0705 311.524 26.8883 311.524 26.642V26.5994C311.524 26.0644 311.366 25.6501 311.049 25.3565C310.731 25.063 310.274 24.9162 309.678 24.9162C309.048 24.9162 308.549 25.0535 308.179 25.3281C307.815 25.6027 307.568 25.9271 307.441 26.3011L305.04 25.9602C305.229 25.2973 305.542 24.7434 305.978 24.2983C306.413 23.8485 306.946 23.5123 307.576 23.2898C308.205 23.0625 308.901 22.9489 309.664 22.9489C310.189 22.9489 310.712 23.0104 311.233 23.1335C311.754 23.2566 312.23 23.4602 312.661 23.7443C313.092 24.0237 313.437 24.4048 313.698 24.8878C313.963 25.3707 314.095 25.9744 314.095 26.6989V34H311.624V32.5014H311.539C311.382 32.8045 311.162 33.0885 310.878 33.3537C310.599 33.6141 310.246 33.8248 309.82 33.9858C309.398 34.142 308.904 34.2202 308.335 34.2202ZM309.003 32.331C309.519 32.331 309.967 32.2292 310.345 32.0256C310.724 31.8172 311.015 31.5426 311.219 31.2017C311.427 30.8608 311.531 30.4891 311.531 30.0866V28.8011C311.451 28.8674 311.314 28.929 311.12 28.9858C310.93 29.0426 310.717 29.0923 310.48 29.1349C310.244 29.1776 310.009 29.2154 309.777 29.2486C309.545 29.2817 309.344 29.3101 309.174 29.3338C308.79 29.3859 308.447 29.4711 308.144 29.5895C307.841 29.7079 307.602 29.8736 307.426 30.0866C307.251 30.295 307.164 30.5649 307.164 30.8963C307.164 31.3698 307.336 31.7273 307.682 31.9688C308.028 32.2102 308.468 32.331 309.003 32.331ZM321.439 34.2131C320.35 34.2131 319.415 33.974 318.634 33.4957C317.857 33.0175 317.258 32.357 316.837 31.5142C316.42 30.6667 316.212 29.6913 316.212 28.5881C316.212 27.4801 316.425 26.5024 316.851 25.6548C317.277 24.8026 317.879 24.1397 318.655 23.6662C319.436 23.188 320.36 22.9489 321.425 22.9489C322.31 22.9489 323.094 23.1122 323.776 23.4389C324.462 23.7609 325.009 24.2178 325.416 24.8097C325.824 25.3968 326.056 26.0833 326.112 26.8693H323.655C323.556 26.3437 323.319 25.9058 322.945 25.5554C322.576 25.2003 322.081 25.0227 321.46 25.0227C320.935 25.0227 320.473 25.1648 320.076 25.4489C319.678 25.7282 319.368 26.1307 319.145 26.6562C318.927 27.1818 318.818 27.8116 318.818 28.5455C318.818 29.2888 318.927 29.928 319.145 30.4631C319.363 30.9934 319.668 31.4029 320.061 31.6918C320.459 31.9759 320.925 32.1179 321.46 32.1179C321.839 32.1179 322.178 32.0469 322.476 31.9048C322.779 31.758 323.032 31.5473 323.236 31.2727C323.44 30.9981 323.579 30.6643 323.655 30.2713H326.112C326.051 31.0431 325.824 31.7273 325.431 32.3239C325.038 32.9157 324.503 33.3797 323.826 33.7159C323.148 34.0473 322.353 34.2131 321.439 34.2131ZM333.053 34.2131C331.959 34.2131 331.015 33.9858 330.219 33.5312C329.429 33.072 328.82 32.4233 328.394 31.5852C327.968 30.7424 327.755 29.7505 327.755 28.6094C327.755 27.4872 327.968 26.5024 328.394 25.6548C328.825 24.8026 329.426 24.1397 330.198 23.6662C330.97 23.188 331.877 22.9489 332.918 22.9489C333.591 22.9489 334.225 23.0578 334.822 23.2756C335.423 23.4886 335.953 23.8201 336.413 24.2699C336.877 24.7197 337.241 25.2926 337.506 25.9886C337.771 26.6799 337.904 27.5038 337.904 28.4602V29.2486H328.962V27.5156H335.44C335.435 27.0232 335.328 26.5852 335.12 26.2017C334.912 25.8134 334.62 25.508 334.246 25.2855C333.877 25.063 333.446 24.9517 332.954 24.9517C332.428 24.9517 331.967 25.0795 331.569 25.3352C331.171 25.5862 330.861 25.9176 330.638 26.3295C330.421 26.7367 330.309 27.1842 330.305 27.6719V29.1847C330.305 29.8191 330.421 30.3636 330.653 30.8182C330.885 31.268 331.209 31.6136 331.626 31.8551C332.042 32.0919 332.53 32.2102 333.089 32.2102C333.463 32.2102 333.801 32.1581 334.104 32.054C334.407 31.9451 334.67 31.7865 334.893 31.5781C335.115 31.3698 335.283 31.1117 335.397 30.804L337.797 31.0739C337.646 31.7083 337.357 32.2623 336.931 32.7358C336.51 33.2045 335.97 33.5691 335.312 33.8295C334.654 34.0852 333.901 34.2131 333.053 34.2131ZM344.127 34.1918C343.27 34.1918 342.503 33.9716 341.826 33.5312C341.149 33.0909 340.614 32.4517 340.221 31.6136C339.828 30.7756 339.632 29.7576 339.632 28.5597C339.632 27.3475 339.83 26.3248 340.228 25.4915C340.631 24.6534 341.173 24.0213 341.855 23.5952C342.536 23.1643 343.296 22.9489 344.134 22.9489C344.774 22.9489 345.299 23.0578 345.711 23.2756C346.123 23.4886 346.45 23.7467 346.691 24.0497C346.933 24.348 347.12 24.6297 347.252 24.8949H347.359V19.4545H349.937V34H347.409V32.2812H347.252C347.12 32.5464 346.928 32.8281 346.677 33.1264C346.426 33.42 346.095 33.6709 345.683 33.8793C345.271 34.0876 344.752 34.1918 344.127 34.1918ZM344.845 32.0824C345.389 32.0824 345.853 31.9356 346.237 31.642C346.62 31.3437 346.911 30.9295 347.11 30.3991C347.309 29.8688 347.409 29.2509 347.409 28.5455C347.409 27.84 347.309 27.2268 347.11 26.706C346.916 26.1851 346.627 25.7803 346.244 25.4915C345.865 25.2027 345.399 25.0582 344.845 25.0582C344.272 25.0582 343.794 25.2074 343.41 25.5057C343.027 25.804 342.738 26.2159 342.544 26.7415C342.349 27.267 342.252 27.8684 342.252 28.5455C342.252 29.2273 342.349 29.8357 342.544 30.3707C342.742 30.901 343.034 31.3201 343.417 31.6278C343.805 31.9309 344.281 32.0824 344.845 32.0824Z" fill="black"/>
<rect x="269.079" y="50" width="121.56" height="7" fill="#76F08A"/>
</svg>
