<svg enable-background="new 0 0 568 568" viewBox="0 0 568 568" xmlns="http://www.w3.org/2000/svg"><g fill="#659ff1"><path d="m70.4 492.1c58.2-21.5 116.6-39.3 174.9-.5-58.4-25.8-116.6-11.5-174.9.5"/><path d="m241.4 471.6c.9 5.6-2.2 5.8-6.1 4.2-53-21.3-105-11-157.1 3.1-5 1.7-4.4 1.9-5.6.6-.2-.1-.4-.4-1.1-1.2-.4-.4-.3-1.1.1-1.4.1-.1.1-.1.2-.1 56.5-22.6 112.3-35.6 169.8-5z"/><path d="m500.3 492.1c-58.2-21.5-116.6-39.3-174.9-.5 58.4-25.8 116.5-11.5 174.9.5"/><path d="m329.3 471.6c-.9 5.6 2.2 5.8 6.1 4.2 53-21.3 105-11 157.1 3.1 5 1.7 4.4 1.9 5.6.6.1-.1.4-.4 1.1-1.2.4-.4.3-1.1-.1-1.4-.1-.1-.1-.1-.2-.1-56.5-22.6-112.3-35.6-169.8-5z"/><path d="m529.7 463.5c-9.9-10.2-59-24.8-63.6-26.2l-.3-.1c-5.5-1.4-12-3-19-4.4-.2 0-.4-.1-.6-.1-5.2-1.1-10.6-2.1-16.3-3l-.6-.1c-3.4-.5-6.9-1-10.4-1.4-13.9-1.6-28-2.1-40.1-.3-.7.1-1.4.2-2 .3-2.5.5-5 1-7.7 1.7l-.4.1c-4.6 1.3-9.4 2.9-14.3 4.7l-.7.3c-2.3.9-4.6 1.8-6.9 2.9-.3.1-.6.2-.9.4-5 2.2-9.8 4.5-14.4 7-.3.1-.6.3-.8.4-6.8 3.7-13.3 7.9-19.4 12.7-3.6 3-7.6 5.4-12 7-1 .4-3.5 2.7-15.1 2.7-5.2 0-10.3-.9-15.1-2.7-4.4-1.6-8.4-4-12-7-5.9-4.7-12.3-8.9-19-12.4-.3-.1-.6-.3-.8-.4-3.4-1.9-7-3.7-10.6-5.4-1.3-.6-2.5-1.1-3.8-1.7-.1 0-.2-.1-.3-.1-.2-.1-.4-.2-.6-.3h-.1c-1.6-.7-3.3-1.4-4.9-2.1s-3.3-1.3-4.9-1.9c-.2-.1-.3-.1-.5-.2-1.3-.5-2.5-.9-3.7-1.3-2.4-.8-4.8-1.6-7.2-2.2-3-.9-6.1-1.6-9.2-2.2-.7-.1-1.4-.2-2-.3-12.2-1.8-26.2-1.3-40.1.3-15.8 2-31.5 5.1-46.9 9.1h-.5-.1l-.6.2c-7 2.1-53.2 16.1-63 25.9v.1c-1.9 3.4-5.2 7.5-1.9 11.1s7.6.7 11.2-.7c31.8-12.4 63.5-25 97.7-29 11.5-1.4 23.1-2 34.6-1.5 4.6-.1 9.2.1 13.8.7 4.7.6 9.4 1.5 14 2.8.4.1.8.2 1.1.3 2.5.7 5 1.5 7.4 2.4.1 0 .3.1.4.2s.5.2.7.3l1.5.6c.7.3 1.4.5 2 .8 1.4.6 2.8 1.2 4.2 1.9s2.8 1.3 4.1 2c7.1 3.6 13.7 8.2 19.6 13.6 1 1 2.1 1.9 3.2 2.7 1.3 1 2.5 2 3.6 3 6.9 7.1 13.1 14.8 18.5 23.1 3.7 5.6 6.4 8.2 9.6 8.2 3.5 0 6-2.6 9.7-8.2 5.5-8.3 10.5-17.1 18.5-23.1 1.8-1.3 3.5-2.7 5.2-4.2 6.3-6 13.4-11.1 21.1-15.2 1.1-.6 2.1-1.2 3.3-1.7 2.2-1.1 4.5-2.1 6.8-3 1.1-.5 2.3-.9 3.5-1.3 11.5-4.1 23.7-6.1 36-5.9 11.6-.4 23.2.2 34.7 1.7 34.2 3.9 66 16.5 97.7 29 3.7 1.4 7.9 4.5 11.3.7s.1-7.9-1.7-11.3m-313.3-15.9.6-1c-.1.2-.1.4-.1.6v.2.1c0 .1.1.1.1.2.1.1.1.2.2.2.1.1.2.1.3.2-.3-.2-.7-.4-1.1-.5"/><path d="m217.6 448c-.4-.2-.8-.3-1.1-.4l.6-1c-.1.2-.1.4-.1.6v.2.1c0 .1.1.1.1.2.1.1.1.2.2.2 0 0 .1.1.3.1"/><path d="m294.1 203.8c-1.8-5.3-3.5-10.3-4.9-15.2-.8-2.5-1.5-5-2.2-7.4z"/><path d="m328 233.8c.1.3.3.5.4.8l-.2-.3c-.1-.3-.1-.4-.2-.5"/><path d="m329.5 236.8c-.2-.3-.3-.7-.5-1.1.1.4.3.8.5 1.1"/><path d="m331.5 240.8c0-.1-.1-.2-.1-.3.1.1.1.2.2.4"/><path d="m332 241.9c-.2-.3-.4-.7-.5-1 .2.3.3.6.4.8 0 .1.1.1.1.2"/><path d="m440.4 376.3c-.2-2-.4-4-.8-6 .1.3.1.5.2.8.4 1.6.6 3.4.6 5.2"/><path d="m448.8 323.3c5.6-.5 14.2-1.1 16.5-7.7s-4-12.5-9.4-16.9c-9.4-7.7-23-8.2-33.5-1.9-3.4 2-4.5 3.9-2.9 7.9 4.6 11.4 15.2 18.7 29.3 18.6"/><path d="m109.1 323.3c-5.6-.5-14.2-1.1-16.5-7.7s4-12.5 9.4-16.9c9.3-7.7 23-8.2 33.5-1.9 3.4 2 4.5 3.9 2.9 7.9-4.6 11.4-15.2 18.7-29.3 18.6"/><path d="m143.6 142.5c-.6-1.6-1.8-4-2.6-6.5-2.6-8.3-.9-22.8 3.1-23.4 8.7-1.1 16.3 2.7 22.2 9 8.4 8.9 10.7 19.4 7.3 31.2-1.3 4.5-3.6 5.8-8.2 4.9-9.1-1.8-16.1-6.6-21.8-15.2"/><path d="m423.4 154.6c.6-1.6 1.8-4 2.6-6.5 2.6-8.3.9-22.8-3.1-23.4-8.7-1.1-16.3 2.7-22.2 9-8.4 8.9-10.7 19.4-7.3 31.2 1.3 4.5 3.6 5.8 8.2 4.9 9.2-1.8 16.2-6.6 21.8-15.2"/><path d="m234.5 88.1c1.7-12.1 8.3-20.4 19.5-25.2 5.2-2.2 8.1-1 10.6 4.7 6.8 15.9-.6 34.3-16.4 41.2-5.8 2.5-8.7 1.3-10.8-3.5-2.6-5.4-3.6-11.3-2.9-17.2"/><path d="m324.6 187c-4.3-11-2.7-21.1 4.5-30.5 3.3-4.3 6.4-4.7 11.1-1.1 13.2 10.2 15.7 29.2 5.6 42.5-3.7 4.9-6.7 5.3-10.8 2.2-4.6-3.3-8.2-7.8-10.4-13.1"/><path d="m172.1 233.6c15.8 0 28.8 12.4 29.6 28.1.3 5.8-2 7.6-7.2 8.3-15.1 2-29.9-9.4-32.4-25-1.4-8.9.8-11.4 10-11.4"/><path d="m105.7 211.1c11 .4 19.5 5.2 25.2 14.7 2.2 3.6 2.1 6.1-1.6 9-13.6 10.7-34.5 7-43.4-7.8-2.6-4.2-2.5-7.2 1.8-10.2 5.6-3.6 11.4-5.8 18-5.7"/><path d="m395.6 233.6c-15.8 0-28.8 12.4-29.6 28.1-.3 5.8 2 7.6 7.2 8.3 15.1 2 29.9-9.4 32.4-25 1.3-8.9-.8-11.4-10-11.4"/><path d="m447.2 203.1c-11 .4-19.5 5.2-25.2 14.7-2.2 3.6-2.1 6.1 1.5 9 13.6 10.7 34.5 7 43.4-7.8 2.5-4.2 2.5-7.2-1.9-10.2-5.4-3.7-11.2-5.9-17.8-5.7"/><path d="m217.6 448c-.4-.2-.8-.3-1.1-.4l.6-1c-.1.2-.1.4-.1.6v.2.1c0 .1.1.1.1.2.1.1.1.2.2.2 0 0 .1.1.3.1"/><path d="m263.6 289.5c-.1.1-.1.1-.2.2.5-.6 1.1-1.1 1.7-1.7-.5.5-1 1-1.5 1.5m-21.3 40.2v.2s0-.1 0-.2"/><path d="m237.9 443.9c-.3.6-.6 1.1-.8 1.6-3.4-1.9-7-3.7-10.6-5.4-1.3-.6-2.5-1.1-3.8-1.7-.1 0-.2-.1-.3-.1-.2-.1-.4-.2-.6-.3.3-.5.6-1.1.9-1.7 1.3.6 2.5 1.1 3.8 1.7 3.9 1.9 7.8 3.9 11.4 5.9"/><path d="m242.4 330.8c0-.2 0-.3-.1-.5 0-.1 0-.2 0-.3s0-.1 0-.2v.2c0 .2.1.5.1.8"/><path d="m299.4 177.1-.6-1.3c.1.4.3.8.6 1.3"/><path d="m313.6 205.2-13.1-26c1.5 2.8 3.4 6.6 5.7 11.1.3.5.5 1.1.8 1.6l1.7 3.3c.9 1.7 1.7 3.4 2.6 5.2.6 1.2 1.2 2.4 1.8 3.6v.1l.1.1v.1c.1.2.1.4.2.6 0 .1.1.1.1.2"/><path d="m324.7 227.1c-.6-1-1.1-1.9-1.7-2.9.5 1 1.1 1.9 1.7 2.9"/><path d="m326.4 230.4.1.3c-.2-.5-.5-.9-.7-1.4v-.1l-.9-1.8s.1.1.1.1.1.1.1.1 0 .1 0 .1l.2.4c.3.7.7 1.5 1.1 2.3"/><path d="m327.8 233.3c.1.3.3.6.4.9-.2-.5-.5-1-.7-1.5.1.2.2.4.3.6"/><path d="m331.5 240.8c0-.1-.1-.1-.1-.2 0 .1 0 .1.1.2-.1 0-.1 0 0 0"/><path d="m332 241.9c-.2-.3-.3-.7-.5-1l.4.8c0 .1.1.1.1.2"/><path d="m333.6 245.4v.1s0 0 0-.1z"/><path d="m346.7 437.8c-.3.1-.6.2-.9.4-5 2.2-9.8 4.5-14.4 7-.3-.5-.5-1-.8-1.6 4.8-2.6 10-5.2 15.3-7.5.2.6.5 1.2.8 1.7"/><path d="m324.7 227.1c-.6-1-1.1-1.9-1.7-2.9-1.7-2.9-3.2-5.8-4.7-8.9-.4-.8-.8-1.6-1.1-2.4-1.2-2.5-2.4-5.1-3.5-7.7-.1-.1-.1-.2-.1-.3l-.2-.6s0 0 0-.1c.7 1.3 1.4 2.7 2.1 4 .3.5.5 1.1.8 1.6l1.5 3c.8 1.6 1.6 3.2 2.4 4.8 1 2 2 4.1 3 6 .2.5.5 1 .7 1.5.3.6.6 1.2.9 1.8z"/><path d="m242.4 330.8c0-.2 0-.3-.1-.5 0-.1 0-.2 0-.3s0-.1 0-.2v.2c0 .2.1.5.1.8"/><path d="m242.5 332.3c0-.3-.1-.6-.1-.9s-.1-.4-.1-.6c.2.5.2 1 .2 1.5"/><path d="m299.4 177.1-.6-1.3c.1.4.3.8.6 1.3"/><path d="m323.8 225.2c.3.6.6 1.2.9 1.8l-11-21.8-.1-.1-13.1-26c1.5 2.8 3.4 6.6 5.7 11.1.3.5.5 1.1.8 1.6l1.7 3.3c.9 1.7 1.7 3.4 2.6 5.2.6 1.2 1.2 2.4 1.8 3.6 0 0 .1.1.1.1l.1.1v.1c.7 1.3 1.4 2.7 2 4 .3.5.5 1.1.8 1.6l1.5 3c.8 1.6 1.6 3.2 2.4 4.8 1 2 2 4.1 3 6z"/><path d="m324.7 227.1c.1.1.1.2.1.3z"/><path d="m325.8 229.2-.9-1.7s.1.1.1.1v.1c0 .1 0 .1.1.2l.1.2z"/><path d="m326.4 230.4c.3.6.6 1.1.9 1.7l-.5-1-.2-.4z"/><path d="m333.7 245.6v-.1z"/><path d="m346.8 360.7c-1.1 3-2 6.2-2.6 9.3-.4 3.8-.7 7.7-.8 11.5-6.2-1.5-11.4-5.8-14-11.6-1.2-2.8-.5-4.2 1.8-5.8 4.5-3.1 10.2-4.4 15.6-3.4"/><path d="m436.8 363c-.8-2.2-1.8-4.4-2.9-6.5 1.2 2 2.2 4.2 2.9 6.5"/><path d="m454.9 370.6c-.3-2.4-.5-4.6-.9-6.7v-.1c-.7-2.6-1.6-5.1-2.6-7.5v-.1c-7.5-17.1-23.3-29.1-41.8-31.8-5-.7-10-.7-15 0 0 0-.4 0-1.2.2-5.6 1-11.1 2.7-16.2 5.2h-.1c-.1 0-.2.1-.2.1-10.8 4.8-23.7 13.8-30 30.9-1.1 3-2 6.2-2.6 9.3-.4 3.8-.7 7.7-.8 11.5-.2 7.5.3 15.1 1.4 22.5 2.1 10.5 5.2 20.8 9.3 30.7 4.9-1.9 9.7-3.5 14.3-4.7l.4-.1c-.5-2.5-1.2-5-2.1-7.4-7.4-21.5-8.8-42.8 3.4-63.3 9.1-15.2 26.4-21.7 43.2-16.4 8.8 2.8 16.1 9 20.4 17.2l.1.1c.4.5 2.4 3.5 3.7 10.1.1.5.2.9.3 1.4.3 1.5.4 3.1.5 4.6v.2c.3 4.7.2 9.3-.2 14-.9 10-3.5 22.9-8.9 39.3l.6.1c5.6.9 11.1 1.9 16.3 3 4.7-14.4 11.5-39.8 8.7-62.3m-21-14.1c1.3 2 2.3 4.2 2.9 6.5-.8-2.2-1.8-4.4-2.9-6.5m6.5 19.8c-.2-2-.4-4-.8-6 .1.3.1.5.2.8.4 1.7.6 3.5.6 5.2"/><path d="m433.9 356.5c1.3 2 2.3 4.2 2.9 6.5-.8-2.3-1.8-4.4-2.9-6.5"/><path d="m440.4 376.3c-.2-2-.4-4-.8-6 .1.3.1.5.2.8.4 1.6.6 3.4.6 5.2"/><path d="m467 260.6c-29.3-1.5-56.1 2.7-79.6 13.4-10.3 4.6-19.9 10.5-28.7 17.5-5.3 4.2-10.3 8.8-15 13.8-6.2 6.5-11.8 13.6-16.8 21.1.1-1 .3-1.9.5-2.9 1.1-7.3 2.7-14.5 4.7-21.5 2.5-8.7 5.6-17.2 9.4-25.4 2.6-5.6 5.4-11 8.5-16.4 2.9-5 6.1-9.8 9.5-14.6 19.8-27.3 46.8-48.5 78-61.3 6.4-2.6 12.9-4.8 19.5-6.7 4.1-1.1 4.7-2.5 2.1-5.9-1.2-1.6-2.3-3.3-3.1-5.1-1.3-2.6-2.8-4.1-4.9-4.4-1.8-.2-3.6.2-5.2 1-6 2.7-12.2 4.5-18.3 7-.7.3-1.4.6-2.1.9-14.8 6.3-28.2 14.8-41.1 24.5-1.1.8-2.6.6-3.4-.5-.5-.6-.6-1.5-.4-2.2.2-.6.3-1.1.5-1.7 8-24.5 7.9-44.4 4.8-65-.8-5.1-1.7-10.2-2.7-15.5-.4-2.2-.9-4.4-1.4-6.6s-.5-4.9-3.3-6c-4.2-1.8-8.3-4-13.1-5.6-1.3-.4-2.6.3-3.1 1.5-.2.5-.2 1 0 1.5 2.5 9.2 4.4 18.5 5.6 28 2.2 16.7 1.9 33.6-.9 50.2-2.4 14.9-6.6 29.5-12.5 43.4-4.5 10.3-10 20.2-16.5 29.4 0 0 0 .1-.1.1-4.7-6-9.1-12.3-13-18.8 0 .1 0 .1.1.2l-.2-.4-.1-.1-.1-.3c-.3-.5-.6-1-.9-1.4s-.5-1-.8-1.5c-1.7-2.9-3.2-5.8-4.8-8.9-.4-.8-.8-1.6-1.1-2.4-1.2-2.5-2.4-5.1-3.4-7.7l-.1-.1-11.5-22.8c1.2 2.3 2.5 4.9 4 7.9.3.5.5 1.1.8 1.6l1.7 3.3c.9 1.7 1.7 3.4 2.6 5.2.6 1.2 1.2 2.4 1.8 3.6-.2-.6-.5-1.1-.7-1.7-5.2-12.9-9-26.2-11.5-39.9-.3-1.8-2.1-3.1-3.9-2.7-.8.1-1.5.6-2.1 1.2-1.3 1.7-2.7 3.3-4.3 4.7-1 .8-1.9 1.8-2.7 2.9-2.3 3.3-2.5 6.9-1.1 11.4.1.3.2.7.3 1l.1.2 7.1 22.7.1.3v.1c.5 1.4 1 2.8 1.5 4.3l-3.8-1.1c-5.5-1.6-10.3-3.1-15.1-4.4-12.6-3.3-12.4-3.2-18 8.1-2 4-1.3 5.2 3.1 6 12 2.3 23.8 6 35 10.9 1.7.7 3.3 1.4 4.9 2.1 3.8 1.6 7.1 4.4 9.1 8 .8 1.3 1.6 2.6 2.5 3.9v.1c2.3 4.5 3.7 7.6 3.9 8.2 2.1 6.5 3.2 13.2 3.2 20 0 4.7-.5 9.5-1.5 14.1-10.1-13.7-22.1-20.9-35-20.9s-25 7.2-35 20.9c-3.2-9.8-7.9-20.9-10.2-26.2-.9-2-1.9-3.9-3.2-5.6-.4-.6-.9-1.3-1.4-1.8-1.2-1.5-2.8-3.8-2.8-3.8s-.2-.3-.4-.4c-2.8-3.5-5.4-7.2-7.9-10.9-5.4-9.1-9.9-18.7-13.4-28.7 7.3-4.1 14.3-8.7 21-13.7 1.7-1.2 3.4-2.5 5-3.8 22.2-17.3 41.4-38.2 56.8-61.8.5-.4 1.1-.7 1.7-1.1 1.5-.9 3-1.7 4.6-2.6 10.7-6 22-10.8 33.7-14.3 4.3-1.2 4.8-2.5 2.4-6.3-6.7-10.7-6.6-10.8-18.8-6.3-2.9 1.1-5.7 2.3-8.7 3.5 2.9-6.4 5.5-12.9 7.6-19.6.7-2 4.2-7.2 2.7-8.1-4.1-2.7-8.7-2.5-13.2-3.4-3-.6-3.2 3.5-4 5.8-13.9 42.6-55 89.3-92.9 113.3-.6.4-1.1.7-1.6 1-.6.4-1.4.1-1.8-.5-.1-.1-.1-.2-.1-.3-1.2-4.9-2.2-9.9-3.1-14.9-.1-.6-.1-1.1-.3-1.7-1.1-6.8-1.7-13.6-1.9-20.5-.7-19 8.5-45.4 13.7-64.4.4-1.3-.3-2.7-1.6-3.2-.2-.1-.4-.1-.6-.1-.3 0-.6 0-.9.1-4.8 1.5-8.9 3.7-13.1 5.6-2.7 1.2-2.8 3.7-3.2 6-5.3 25.4-15.6 55.9-9.3 83.2.9 3.9 2 8 3.4 12.1.1.5.3 1.1.5 1.7.4 1.3-.3 2.7-1.6 3.1-.5.2-1 .2-1.6 0-.2-.1-.5-.2-.7-.4-7.5-5.7-15.3-10.9-23.4-15.6-.8-.5-1.7-1-2.6-1.5l-1.8-1c-1-.5-1.9-1-2.9-1.5-1.6-.9-3.3-1.7-5-2.4-.8-.4-1.6-.8-2.5-1.1l-2.2-1c-1-.4-1.9-.8-2.9-1.2-.8-.3-1.5-.6-2.3-.9-5.3-2-10.8-3.7-15.9-6.1-4.5-2-7.3-1.2-9.4 2.2-.3.5-.6 1.1-.8 1.7-.2.4-.4.8-.6 1.2s-.4.8-.7 1.2c-.1.2-.2.4-.4.6 0 0-.1.1-.1.1-.2.3-.4.6-.6.9-.2.2-.3.5-.5.7-.1.1-.1.2-.2.2-.1.1-.1.2-.2.3-.2.3-.4.5-.6.8 0 .1-.1.2-.2.3s0 0 0 0c0 .1-.1.3-.2.4 0 .1-.1.1-.1.2l-.1.4v.1c0 .2-.1.4-.1.6 0 1.3 1.2 2 3.7 2.7 17 4.8 33.2 12 48.2 21.5 6.7 4.3 13.1 8.9 19.1 14 3.4 2.9 6.7 5.8 9.9 8.9 6.6 6.4 12.7 13.3 18.3 20.7 1.3 1.7 2.5 3.4 3.7 5.1.4.6.8 1.2 1.2 1.8.6.9 1.2 1.7 1.7 2.6s1.2 1.8 1.7 2.7c.4.6.8 1.2 1.2 1.9.4.6.9 1.4 1.3 2.2.1.2.2.3.3.5.7 1.3 1.5 2.5 2.2 3.8s1.3 2.3 1.9 3.4c.4.8.8 1.5 1.2 2.3.9 1.7 1.7 3.3 2.5 5 .4.8.7 1.6 1.1 2.4.1.1.1.2.1.3l1.1 2.5c.4.9.8 1.7 1.1 2.6.5 1.1.9 2.1 1.3 3.2.4.9.7 1.8 1 2.7.3.7.6 1.4.8 2.1s.6 1.6.9 2.4c.6 1.8 1.2 3.5 1.7 5.3.3.7.5 1.5.7 2.3.1.2.1.4.2.6.3.8.5 1.6.7 2.5.6 2.1 1.2 4.3 1.7 6.4.2.9.4 1.7.6 2.6s.3 1.5.5 2.3v.2c.2 1 .4 1.9.6 2.9.1.6.2 1.1.3 1.7 0 .2.1.3.1.5.1.8.3 1.7.4 2.5s.3 1.8.5 2.8c.2 1.1.3 2.3.5 3.4.1.5.1 1.1.2 1.7v.2c0-.1 0-.1 0-.2v.2c0 .3.1.5.1.8.1.5.1 1 .2 1.6.1.8.2 1.6.3 2.4l.4 4.4c0 .9.1 1.8.2 2.7.2 3.5.2 7 .2 10.4 0 1.9 0 3.8-.1 5.8 0 1 0 1.9-.1 2.9s-.1 1.9-.2 2.9v.6.7c-.1 1-.2 2.1-.2 3.1 0 .4-.1.7-.1 1.1-.1.9-.2 2.4-.4 3.2s-.2 1.6-.3 2.4c-.2 1.3-.3 2.5-.6 3.8s-.4 2.7-.6 4.1-.5 2.8-.8 4.1c-.1.3-.1.5-.1.7-.3 1.4-.6 2.9-.9 4.3-.2 1.2-.6 2.4-.8 3.6 0 .1-.1.2-.1.3-.1.6-.3 1.2-.5 1.8-.6 2.3-1.2 4.5-1.9 6.8-.2.6-.3 1.2-.6 1.8-.3 1-.6 1.9-.9 2.8-.2.5-.3 1-.5 1.6-.5 1.3-.9 2.5-1.4 3.8s-.8 2.2-1.3 3.4c-.1.1-.1.2-.2.3-.2.5-.4 1.1-.6 1.6-.4 1.1-.9 2.2-1.4 3.3-.1.2-.2.4-.3.6-.6 1.3-1.1 2.5-1.7 3.8-.1.2-.2.4-.3.5-.5 1-.9 2-1.4 3-.2.5-.6 1.1-.8 1.6-.6 1.2-1.2 2.5-1.9 3.7 1.3.6 2.5 1.1 3.8 1.7 3.9 1.8 7.8 3.8 11.5 5.8.4-.9.9-1.8 1.4-2.8 18.6-37.8 20.6-86.1 17.4-120.6l-.2-1.9c0-.6 0-1.1 0-1.7-.1-2-.1-4-.2-5.9v-1.4-1-.1s0 0 0-.1v-.1-.1c0-.5 0-1.1 0-1.6s0-1.4 0-2v-1.7s0 0 0-.1c0-.3 0-.7 0-1 0-.1 0-.1 0-.2 0-.2 0-.4.1-.7.1-.4.2-.8.3-1.3 1.1-3.1 2.8-6 5.1-8.4.5-.6 1.1-1.3 1.7-1.9 0-.1.1-.1.2-.2.5-.5 1-1 1.5-1.5.1 0 .1-.1.2-.1 3.7-3.4 8.2-6.7 13-8.4 3.8-1.4 8-1.5 11.8-.2 1.6.6 3.2 1.3 4.7 2.2 4.5 2.8 8.6 6.4 11.9 10.5 0 0 0 0 .1.1l.4.5c.2.4.4.8.6 1.1 0 0 0 .1.1.1.5 1 .9 2.1 1.3 3.1.9 2.5 1.5 5.1 1.7 7.8v.1c.4 3.6.5 7.2.3 10.7-.1 2.3.1 4.6.5 6.9-.2 1.7-.3 3.5-.4 5.3-2.3 33.8.7 78 18 113.3.4.9.8 1.7 1.2 2.5 4.8-2.6 10-5.2 15.3-7.5-10.9-20.6-17.7-43.2-20-66.4-.1-2.8.5-5.6 1.8-8.1 3.6-6.8 7.6-13.4 12.1-19.8 1.5-2.3 1.7-2.4 4-5.9 4.1-6.4 8.8-12.3 14-17.8 5.3-5.5 11.1-10.5 17.3-15 6.5-4.7 13.4-8.8 20.7-12.2 21.8-10.2 45.9-14.6 69.9-12.8 3.4.2 9.6 3 8.6-3.9-.2-4.7 5.7-12.5-6.8-13.2m-133.4-15.2v.1s0 0 0-.1zm-1.7-3.8c0 .1.1.2.1.2-.2-.3-.4-.7-.5-1 .1.4.3.6.4.8m-.6-1.2c.1.1.1.3.2.4s0 0 0-.1-.1-.1-.1-.2zm-2.3-4.7c.2.4.4.7.5 1.1-.1-.4-.3-.7-.5-1.1z"/><path d="m256.3 307.7v.6-.1c0-.5 0-1.1 0-1.6 0 .4 0 .8.1 1.2"/><path d="m256.6 300c1.1-3.1 2.8-6 5.1-8.4-2.9 3.2-4.8 7.2-5.5 11.5 0-.3 0-.7 0-1 0-.1 0-.1 0-.2 0-.2 0-.4.1-.7.1-.4.2-.8.3-1.2"/><path d="m263.4 289.7c-.6.6-1.2 1.3-1.7 1.9.5-.6 1.1-1.2 1.7-1.9"/><path d="m242.3 330c0-.1 0-.1 0-.2v.2s0-.1 0-.2v.2c0 .3 0 .6.2.8-.1-.3-.1-.5-.2-.8m14.3-13.1v1.7l.2 1.9c0-1.2-.1-2.4-.2-3.6"/><path d="m110.1 170.9c-.2.2-.3.5-.5.7-.1.1-.1.2-.2.2 0-.1.1-.2.2-.2.2-.2.4-.4.5-.7"/><path d="m298.7 175.8c.2.4.4.8.6 1.3z"/><path d="m306.1 190.3 7.5 14.9-13.1-26c1.4 2.8 3.3 6.6 5.6 11.1"/><path d="m325.8 229.2-.9-1.7.2.4.1.2z"/><path d="m222.3 361.5c-1-3.5-2-6.9-3-10.4-1.7-5.8-5.6-8.4-11.4-9.1-7.8-.9-15.6-1.7-23.4-2.6l-7-.8c3.4-2.2 6.9-4.4 10.4-6.4 3.2-2 6.6-3.8 10.1-5.3 1.4-.6 2.9-1 4.4-1.4.1 0 .2 0 .3-.1-.4 0 2.1-.5 0 0h.3 1.7c4.7-.1 9.8-5.2 7.8-10.2-8.9-22.1-29.9-34.2-51.6-41.3-19.6-6.4-40.5-9.3-61-10.3-4.3-.2-8.7-.4-13.1-.3-10.4.2-10.4 16.4 0 16.2 11-.1 22 .6 32.9 2.1 18.5 2.2 40.3 7 57.3 17.1 5.9 3.4 11.2 7.9 15.4 13.3-9.6 3.5-18.5 10.1-26.8 15.4-6.4 4.1-16 7.9-13.9 17.3 1.4 5.9 6.4 8.3 11.9 8.9 8.3 1 16.6 1.9 24.9 2.8l14.1 1.6c.6.1 1.3.1 1.9.2.2 1 .4 2 .6 2.7.6 2.1 1.3 4.3 1.9 6.4 1.4 4.7 2.4 9.5 2.9 14.4 1.4 17-3.8 33.7-10.1 49.3-1.6 4 1.8 8.9 5.6 10 4.6 1.3 8.3-1.6 10-5.6 9.6-23.9 14.3-48.3 6.9-73.4m-59.8-25.2c.3.1.5.1.8.2l.1.1c-.3-.1-.6-.2-.9-.3"/><path d="m202.6 325.4c-.4 0 2.2-.6 0 0"/></g></svg>